<?xml version="1.0" encoding="UTF-8" standalone="no"?>
<!DOCTYPE svg PUBLIC "-//W3C//DTD SVG 1.1//EN"
 "http://www.w3.org/Graphics/SVG/1.1/DTD/svg11.dtd">
<!-- Generated by graphviz version 14.0.2 (20251019.1705)
 -->
<!-- Pages: 1 -->
<svg width="829pt" height="155pt"
 viewBox="0.00 0.00 829.00 155.00" xmlns="http://www.w3.org/2000/svg" xmlns:xlink="http://www.w3.org/1999/xlink">
<g id="graph0" class="graph" transform="scale(1 1) rotate(0) translate(4 151)">
<polygon fill="white" stroke="none" points="-4,4 -4,-151 824.5,-151 824.5,4 -4,4"/>
<!-- 2125459126304 -->
<g id="node1" class="node">
<title>2125459126304</title>
<polygon fill="none" stroke="black" points="316.12,-82.5 316.12,-118.5 503.62,-118.5 503.62,-82.5 316.12,-82.5"/>
<text xml:space="preserve" text-anchor="middle" x="358.25" y="-95.7" font-family="Times New Roman,serif" font-size="14.00">data &#45;6.0000</text>
<polyline fill="none" stroke="black" points="400.38,-83 400.38,-118.5"/>
<text xml:space="preserve" text-anchor="middle" x="441" y="-95.7" font-family="Times New Roman,serif" font-size="14.00">grad 0.0000</text>
<polyline fill="none" stroke="black" points="481.62,-83 481.62,-118.5"/>
<text xml:space="preserve" text-anchor="middle" x="492.62" y="-95.7" font-family="Times New Roman,serif" font-size="14.00">e</text>
</g>
<!-- 2125459340848+ -->
<g id="node4" class="node">
<title>2125459340848+</title>
<ellipse fill="none" stroke="black" cx="567" cy="-72.5" rx="27" ry="18"/>
<text xml:space="preserve" text-anchor="middle" x="567" y="-67.45" font-family="Times New Roman,serif" font-size="14.00">+</text>
</g>
<!-- 2125459126304&#45;&gt;2125459340848+ -->
<g id="edge8" class="edge">
<title>2125459126304&#45;&gt;2125459340848+</title>
<path fill="none" stroke="black" d="M503.8,-83.73C512.71,-82.12 521.34,-80.56 529.19,-79.14"/>
<polygon fill="black" stroke="black" points="529.74,-82.6 538.96,-77.38 528.5,-75.71 529.74,-82.6"/>
</g>
<!-- 2125459126304* -->
<g id="node2" class="node">
<title>2125459126304*</title>
<ellipse fill="none" stroke="black" cx="252.75" cy="-100.5" rx="27" ry="18"/>
<text xml:space="preserve" text-anchor="middle" x="252.75" y="-95.45" font-family="Times New Roman,serif" font-size="14.00">*</text>
</g>
<!-- 2125459126304*&#45;&gt;2125459126304 -->
<g id="edge1" class="edge">
<title>2125459126304*&#45;&gt;2125459126304</title>
<path fill="none" stroke="black" d="M280.06,-100.5C287.3,-100.5 295.61,-100.5 304.45,-100.5"/>
<polygon fill="black" stroke="black" points="304.37,-104 314.37,-100.5 304.37,-97 304.37,-104"/>
</g>
<!-- 2125459340848 -->
<g id="node3" class="node">
<title>2125459340848</title>
<polygon fill="none" stroke="black" points="630,-54.5 630,-90.5 820.5,-90.5 820.5,-54.5 630,-54.5"/>
<text xml:space="preserve" text-anchor="middle" x="673.25" y="-67.7" font-family="Times New Roman,serif" font-size="14.00">data 14.0000</text>
<polyline fill="none" stroke="black" points="716.5,-55 716.5,-90.5"/>
<text xml:space="preserve" text-anchor="middle" x="757.12" y="-67.7" font-family="Times New Roman,serif" font-size="14.00">grad 0.0000</text>
<polyline fill="none" stroke="black" points="797.75,-55 797.75,-90.5"/>
<text xml:space="preserve" text-anchor="middle" x="809.12" y="-67.7" font-family="Times New Roman,serif" font-size="14.00">d</text>
</g>
<!-- 2125459340848+&#45;&gt;2125459340848 -->
<g id="edge2" class="edge">
<title>2125459340848+&#45;&gt;2125459340848</title>
<path fill="none" stroke="black" d="M594.15,-72.5C601.3,-72.5 609.51,-72.5 618.25,-72.5"/>
<polygon fill="black" stroke="black" points="618.06,-76 628.06,-72.5 618.06,-69 618.06,-76"/>
</g>
<!-- 2125703252560 -->
<g id="node5" class="node">
<title>2125703252560</title>
<polygon fill="none" stroke="black" points="0.75,-110.5 0.75,-146.5 189,-146.5 189,-110.5 0.75,-110.5"/>
<text xml:space="preserve" text-anchor="middle" x="42.88" y="-123.7" font-family="Times New Roman,serif" font-size="14.00">data &#45;3.0000</text>
<polyline fill="none" stroke="black" points="85,-111 85,-146.5"/>
<text xml:space="preserve" text-anchor="middle" x="125.62" y="-123.7" font-family="Times New Roman,serif" font-size="14.00">grad 0.0000</text>
<polyline fill="none" stroke="black" points="166.25,-111 166.25,-146.5"/>
<text xml:space="preserve" text-anchor="middle" x="177.62" y="-123.7" font-family="Times New Roman,serif" font-size="14.00">b</text>
</g>
<!-- 2125703252560&#45;&gt;2125459126304* -->
<g id="edge6" class="edge">
<title>2125703252560&#45;&gt;2125459126304*</title>
<path fill="none" stroke="black" d="M189.25,-111.73C198.4,-110.08 207.25,-108.49 215.27,-107.05"/>
<polygon fill="black" stroke="black" points="215.66,-110.54 224.89,-105.33 214.43,-103.65 215.66,-110.54"/>
</g>
<!-- 2125702733104 -->
<g id="node6" class="node">
<title>2125702733104</title>
<polygon fill="none" stroke="black" points="3.38,-55.5 3.38,-91.5 186.38,-91.5 186.38,-55.5 3.38,-55.5"/>
<text xml:space="preserve" text-anchor="middle" x="43.25" y="-68.7" font-family="Times New Roman,serif" font-size="14.00">data 2.0000</text>
<polyline fill="none" stroke="black" points="83.12,-56 83.12,-91.5"/>
<text xml:space="preserve" text-anchor="middle" x="123.75" y="-68.7" font-family="Times New Roman,serif" font-size="14.00">grad 0.0000</text>
<polyline fill="none" stroke="black" points="164.38,-56 164.38,-91.5"/>
<text xml:space="preserve" text-anchor="middle" x="175.38" y="-68.7" font-family="Times New Roman,serif" font-size="14.00">a</text>
</g>
<!-- 2125702733104&#45;&gt;2125459126304* -->
<g id="edge7" class="edge">
<title>2125702733104&#45;&gt;2125459126304*</title>
<path fill="none" stroke="black" d="M186.55,-89.21C196.49,-90.93 206.16,-92.6 214.86,-94.11"/>
<polygon fill="black" stroke="black" points="214.13,-97.54 224.58,-95.79 215.33,-90.64 214.13,-97.54"/>
</g>
<!-- 2125459126608* -->
<g id="node8" class="node">
<title>2125459126608*</title>
<ellipse fill="none" stroke="black" cx="252.75" cy="-45.5" rx="27" ry="18"/>
<text xml:space="preserve" text-anchor="middle" x="252.75" y="-40.45" font-family="Times New Roman,serif" font-size="14.00">*</text>
</g>
<!-- 2125702733104&#45;&gt;2125459126608* -->
<g id="edge9" class="edge">
<title>2125702733104&#45;&gt;2125459126608*</title>
<path fill="none" stroke="black" d="M186.55,-57.21C196.59,-55.41 206.33,-53.66 215.1,-52.08"/>
<polygon fill="black" stroke="black" points="215.67,-55.54 224.9,-50.32 214.44,-48.65 215.67,-55.54"/>
</g>
<!-- 2125459126608 -->
<g id="node7" class="node">
<title>2125459126608</title>
<polygon fill="none" stroke="black" points="315.75,-27.5 315.75,-63.5 504,-63.5 504,-27.5 315.75,-27.5"/>
<text xml:space="preserve" text-anchor="middle" x="359" y="-40.7" font-family="Times New Roman,serif" font-size="14.00">data 20.0000</text>
<polyline fill="none" stroke="black" points="402.25,-28 402.25,-63.5"/>
<text xml:space="preserve" text-anchor="middle" x="442.88" y="-40.7" font-family="Times New Roman,serif" font-size="14.00">grad 0.0000</text>
<polyline fill="none" stroke="black" points="483.5,-28 483.5,-63.5"/>
<text xml:space="preserve" text-anchor="middle" x="493.75" y="-40.7" font-family="Times New Roman,serif" font-size="14.00">f</text>
</g>
<!-- 2125459126608&#45;&gt;2125459340848+ -->
<g id="edge4" class="edge">
<title>2125459126608&#45;&gt;2125459340848+</title>
<path fill="none" stroke="black" d="M504.24,-61.75C513.02,-63.28 521.52,-64.76 529.26,-66.1"/>
<polygon fill="black" stroke="black" points="528.41,-69.51 538.86,-67.78 529.61,-62.61 528.41,-69.51"/>
</g>
<!-- 2125459126608*&#45;&gt;2125459126608 -->
<g id="edge3" class="edge">
<title>2125459126608*&#45;&gt;2125459126608</title>
<path fill="none" stroke="black" d="M280.06,-45.5C287.24,-45.5 295.47,-45.5 304.22,-45.5"/>
<polygon fill="black" stroke="black" points="304.04,-49 314.04,-45.5 304.04,-42 304.04,-49"/>
</g>
<!-- 2125703252880 -->
<g id="node9" class="node">
<title>2125703252880</title>
<polygon fill="none" stroke="black" points="0,-0.5 0,-36.5 189.75,-36.5 189.75,-0.5 0,-0.5"/>
<text xml:space="preserve" text-anchor="middle" x="43.25" y="-13.7" font-family="Times New Roman,serif" font-size="14.00">data 10.0000</text>
<polyline fill="none" stroke="black" points="86.5,-1 86.5,-36.5"/>
<text xml:space="preserve" text-anchor="middle" x="127.12" y="-13.7" font-family="Times New Roman,serif" font-size="14.00">grad 0.0000</text>
<polyline fill="none" stroke="black" points="167.75,-1 167.75,-36.5"/>
<text xml:space="preserve" text-anchor="middle" x="178.75" y="-13.7" font-family="Times New Roman,serif" font-size="14.00">c</text>
</g>
<!-- 2125703252880&#45;&gt;2125459126608* -->
<g id="edge5" class="edge">
<title>2125703252880&#45;&gt;2125459126608*</title>
<path fill="none" stroke="black" d="M190.14,-34.83C198.91,-36.35 207.4,-37.82 215.12,-39.15"/>
<polygon fill="black" stroke="black" points="214.25,-42.56 224.7,-40.81 215.44,-35.66 214.25,-42.56"/>
</g>
</g>
</svg>
